# xmcd
#
# Track frame offsets: 
#        150
#        53542
#        82641
#        112165
#        138101
#        168935
#        189467
#        206126
#        268585
#        299101
#
# Disc length: 4657 seconds
#
# Revision: 7
# Processed by: cddbd v1.5.2PL0 Copyright (c) Steve Scherf et al.
# Submitted via: ExactAudioCopy v0.99pb5
#
DISCID=8d122f0a
DTITLE=Sviatoslav Richter - The Complete EMI Recordings CD2
DYEAR=2008
DGENRE=Classical
TTITLE0=Schubert: Piano Sonata in A D664, I. Allegro moderato
TTITLE1=Schubert: Piano Sonata in A D664, II. Andante
TTITLE2=Schubert: Piano Sonata in A D664, III. Allegro
TTITLE3=Schubert: Fantasy in C 'Wanderer' D760, I. Allegro con fuoco
TTITLE4=Schubert: Fantasy in C 'Wanderer' D760, II. Adagio
TTITLE5=Schubert: Fantasy in C 'Wanderer' D760, III. Presto
TTITLE6=Schubert: Fantasy in C 'Wanderer' D760, IV. Allegro
TTITLE7=Schumann: Fantasy in C Op.17, I. Durchaus phantastisch und lei
TTITLE7=denschaftlich vorzutragen
TTITLE8=Schumann: Fantasy in C Op.17, II. M‰ﬂig - Durchaus energisch
TTITLE9=Schumann: Fantasy in C Op.17, III. Langsam getragen - Durchweg
TTITLE9=leise zu halten
EXTD=YEAR: 1992
EXTT0=
EXTT1=
EXTT2=
EXTT3=
EXTT4=
EXTT5=
EXTT6=
EXTT7=
EXTT8=
EXTT9=
PLAYORDER=
